<?xml version="1.0" encoding="UTF-8" standalone="no"?>
<svg
   xmlns:dc="http://purl.org/dc/elements/1.1/"
   xmlns:cc="http://creativecommons.org/ns#"
   xmlns:rdf="http://www.w3.org/1999/02/22-rdf-syntax-ns#"
   xmlns:svg="http://www.w3.org/2000/svg"
   xmlns="http://www.w3.org/2000/svg"
   id="svg2"
   version="1.1"
   viewBox="0 0 549.049 114.49102"
   height="114.49102"
   width="549.04901">
  <metadata
     id="metadata15">
    <rdf:RDF>
      <cc:Work
         rdf:about="">
        <dc:format>image/svg+xml</dc:format>
        <dc:type
           rdf:resource="http://purl.org/dc/dcmitype/StillImage" />
        <dc:title>2015_Logo_TUM_RGB</dc:title>
      </cc:Work>
    </rdf:RDF>
  </metadata>
  <!-- Generator: Sketch 3.4.3 (16618) - http://www.bohemiancoding.com/sketch -->
  <title
     id="title4">2015_Logo_TUM_RGB</title>
  <desc
     id="desc6">Created with Sketch.</desc>
  <defs
     id="defs8">
    <clipPath
       id="clipPath16"
       clipPathUnits="userSpaceOnUse">
      <path
         id="path18"
         d="m 0,56.694 153.197,0 L 153.197,0 0,0 0,56.694 Z" />
    </clipPath>
  </defs>
  <path
     style="fill:#00ced3;fill-opacity:1;stroke:none;stroke-width:1"
     d="m 42.04448,6.0565388 -34.71977,5.8069402 3.40962,13.48754 -8.4819,0.6442 15.08518,7.55762 L 0,34.947859 l 22.0158,8.2909 -0.28577,12.45774 7.32859,42.12008 8.25818,8.004471 3.36987,4.30218 4.3054,-0.90289 10.88445,-38.572441 1.93478,-0.36524 15.78235,17.40529 0.18319,0.20149 5.23212,13.985521 5.2485,5.95421 47.72397,0 0,-53.304931 -13.07781,-6.24379 0.42813,-13.85571 L 80.65327,10.185559 42.04455,6.0565988 Z m 122.36071,1.18095 0,99.9987412 3.12391,-7.8e-4 0,-99.9909512 -3.12391,0 z m 9.22169,0 0,68.1631902 a 5.7005155,5.7030087 0 0 0 -4.46219,5.55901 5.7005155,5.7030087 0 0 0 4.46219,5.56183 l 0,20.706981 3.12399,7.8e-4 0,-20.901661 a 5.7005155,5.7030087 0 0 0 3.8153,-5.37405 5.7005155,5.7030087 0 0 0 -3.8153,-5.37485 l 0,-68.3473202 -3.12399,0 z m 8.63015,0 0,99.9910112 3.26918,0 0,-99.9910112 -3.26918,0 z m 37.18232,0 0,99.9910112 3.27308,0 c 0,0 6e-5,-51.704521 0,-76.925961 l 0,-23.0650502 -3.27308,0 z m 8.7763,0 0,19.9397302 a 5.7005155,5.7030087 0 0 0 -4.22893,5.50661 5.7005155,5.7030087 0 0 0 4.22893,5.50269 l 0,69.049711 3.1227,0 0,-69.099111 a 5.7005155,5.7030087 0 0 0 4.04899,-5.45329 5.7005155,5.7030087 0 0 0 -4.04899,-5.4572 l 0,-19.9891402 -3.1227,0 z m 8.6272,0 0,99.9910112 3.12293,7.8e-4 0,-99.9987212 -3.12293,0 z M 41.7927,8.9503188 57.4366,18.743839 35.36468,23.431799 13.83214,13.625719 41.7927,8.9503188 Z m 6.21305,0.57158 31.3469,3.3520502 7.95906,12.7357 -25.6007,-7.50716 -13.70526,-8.5805902 z m 397.96594,0.7392002 -1.63532,0.10177 -1.33927,0 c -1.40706,3.8e-4 -3.63645,0.32144 -5.05697,0.55806 -5.48846,0.91665 -11.29491,3.18612 -15.15762,7.3289 -4.77911,5.12641 -6.04208,11.22388 -5.96334,18.00504 0.0202,1.85712 0.44422,4.45803 0.95572,6.24964 0.48658,1.7083 1.1966,3.37217 2.08307,4.91085 2.05703,3.57577 5.03582,5.92269 8.56233,7.92854 5.75934,3.27677 12.82042,4.92244 19.1882,6.74098 5.1195,1.46122 10.5722,3.03389 14.42768,6.9074 1.76717,1.77674 2.85748,3.47612 3.35422,5.95224 0.18781,0.92717 0.39853,2.93784 0.35832,3.8694 l -0.13841,1.33882 c -0.0806,1.46574 -0.38046,2.94245 -0.90533,4.31598 -0.3973,1.03571 -1.13799,2.39416 -1.81196,3.27354 -3.48941,4.56686 -9.86201,6.50559 -15.43368,6.54712 l -4.16488,0 c -2.43348,-7.5e-4 -5.90061,-0.68996 -8.18088,-1.55006 -4.78499,-1.80804 -7.75334,-4.78124 -9.75234,-9.46122 -0.86173,-2.01335 -1.70053,-5.80406 -1.70053,-5.80406 l -10.85807,2.82786 1.44182,5.8031 c 1.98445,5.69482 5.13235,10.03107 10.16043,13.43152 3.70016,2.502751 8.12001,3.867321 12.49429,4.586231 1.78028,0.29305 4.00384,0.56674 5.80046,0.58302 l 5.65254,0 3.27198,-0.2752 c 6.8895,-0.82296 14.12622,-3.55163 18.86469,-8.801431 3.39129,-3.7559 5.30249,-8.26227 5.9942,-13.24434 0.13032,-0.94198 0.27739,-1.87464 0.27884,-2.82702 l 0,-3.72019 c -0.0202,-1.75156 -0.53689,-4.58145 -1.09017,-6.24959 -0.83904,-2.52526 -1.56777,-4.21143 -3.13845,-6.39892 -5.86655,-8.1769 -17.96674,-10.74234 -27.15574,-13.3925 -6.28002,-1.81105 -15.34254,-4.32308 -17.12006,-11.60723 -0.39108,-1.60402 -0.46994,-3.27978 -0.30767,-4.9108 0.25283,-2.52514 0.82402,-4.92521 2.38965,-6.99368 2.43194,-3.21419 5.96912,-4.67679 9.8319,-5.31963 l 2.97495,-0.37683 2.37929,0 1.27619,0 c 3.28666,0.0476 6.61599,0.61139 9.58191,2.09644 5.22113,2.61306 7.01684,7.13121 8.03272,12.52843 3.68222,-0.78784 11.00636,-2.5295 11.00636,-2.5295 0,0 -0.56033,-2.71401 -0.93529,-4.01764 -1.37747,-4.79451 -3.73837,-9.3588 -7.69166,-12.52834 -2.87536,-2.30503 -6.26444,-3.75121 -9.81629,-4.63959 -2.59437,-0.6488 -5.65582,-1.11161 -8.32999,-1.13543 l -2.67784,-0.10177 z m -153.64937,0.10177 -5.08197,0.0775 -1.61125,0.11243 c -4.23477,0.50444 -7.99943,1.33853 -11.89935,3.13015 -2.5004,1.14732 -4.84412,2.61137 -6.99069,4.32857 -9.35875,7.49093 -13.57514,19.42518 -14.69972,31.04111 -0.35099,3.62348 -0.32683,7.22323 -0.32254,10.86306 0,2.67702 0.34513,5.38641 0.70204,8.03513 1.75954,13.06231 7.4133,25.63367 19.37814,32.312101 2.35737,1.31543 4.6967,2.26192 7.28779,2.99851 2.6506,0.75442 5.2952,1.10825 8.03067,1.31659 l 1.63758,0.12776 c 7.03981,0.0632 13.19359,-0.80761 19.48549,-4.21239 11.24624,-6.084631 17.17159,-17.104251 19.60356,-29.269071 0.71544,-3.57589 1.17835,-7.21733 1.22005,-10.86315 l 0.14823,-1.93364 0,-2.38125 -0.14216,-1.78556 0,-1.6372 -0.14158,-1.48806 -0.74578,-6.39891 c -1.45452,-8.78705 -4.93682,-17.71522 -11.31616,-24.10647 -1.67644,-1.68004 -3.50573,-3.22106 -5.50322,-4.50973 -2.7176,-1.75144 -5.5468,-3.05667 -8.62743,-4.02241 -2.81685,-0.8839 -5.68529,-1.39412 -8.62601,-1.59948 l -1.78569,-0.13557 z m 80.92152,1.31274 c -1.59117,-0.006 -3.1842,0.026 -4.76525,0.026 l -24.54238,0 0,91.665201 11.15565,0 0,-37.945641 16.37013,0 21.4407,37.945641 13.20637,0 c -7.67997,-13.189351 -22.98311,-39.600391 -22.98311,-39.600391 0,0 4.14708,-1.23847 5.72984,-2.02862 2.9731,-1.48807 5.67252,-3.52973 7.76236,-6.13824 3.50706,-4.3764 5.25125,-9.78723 5.63778,-15.32728 l 0.13466,-1.63631 c 0.0202,-4.2112 -0.66178,-8.79447 -2.42581,-12.64853 -1.37888,-3.01337 -3.40436,-5.66928 -5.90323,-7.84335 -4.24795,-3.69637 -10.51604,-5.73686 -16.06414,-6.26811 -1.57366,-0.1509 -3.16255,-0.19484 -4.75363,-0.20062 z m 118.39221,0.026 0,91.665201 57.41331,0 0,-10.565661 -46.25734,0 0,-31.2494 40.60516,0 0,-10.5646 -40.60516,0 0,-28.71992 44.02648,0 0,-10.56562 -55.18245,0 z m -48.93637,1.7506 1.93393,0 1.04098,0 1.9339,0 c 1.47851,-0.0567 2.99718,0.13528 4.462,0.31095 5.02021,0.59971 10.89825,2.43574 14.40268,6.27196 1.46393,1.60262 2.60151,3.38478 3.4911,5.35647 0.65125,1.44342 1.52144,3.50646 1.74012,5.06006 l -3.2721,0.72554 c -0.34514,0.0821 -1.12613,0.33374 -1.44302,0.21306 -0.34341,-0.12952 -0.43856,-0.62481 -0.54126,-0.93871 -0.31385,-0.95395 -0.58904,-1.7681 -1.02955,-2.67871 -1.19704,-2.4747 -2.91965,-4.71747 -5.16699,-6.335 -3.88654,-2.79757 -8.66396,-3.89811 -13.38665,-3.93234 l -3.42141,0 c -4.48313,0.0474 -10.16371,1.60049 -13.53574,4.63758 -1.18093,1.06253 -2.31144,2.44843 -3.07763,3.84423 -2.89288,5.27219 -2.96668,13.20002 0.91491,18.00499 3.35134,4.14873 7.92573,6.05517 12.87277,7.59246 5.54806,1.72618 14.08782,3.85114 19.03923,5.97162 6.17997,2.64719 11.08086,6.156 13.06808,12.9236 0.6931,2.3631 0.99153,4.83243 0.94691,7.29219 -0.0965,5.35709 -0.99245,9.87864 -4.27029,14.28486 -4.15609,5.58615 -11.19461,8.445421 -17.9266,9.248971 l -2.82552,0.28677 -3.56956,0 -1.63656,0 c -4.80426,-0.15032 -9.72014,-0.86424 -14.13025,-2.885051 -5.26703,-2.41221 -8.61521,-5.94243 -11.11728,-11.11507 -0.55437,-1.14578 -0.98305,-2.34919 -1.3339,-3.57084 -0.098,-0.3438 -0.37774,-1.0849 -0.17539,-1.40477 0.16817,-0.26623 0.73454,-0.36308 1.02441,-0.43594 l 2.52849,-0.65973 c 0.29428,-0.046 0.81281,-0.21594 1.0834,0 0.25457,0.15466 0.53363,1.26338 0.65565,1.60717 0.4389,1.23064 0.97326,2.41122 1.57276,3.57197 1.45927,2.83024 3.96232,5.39985 6.65473,7.0799 3.35386,2.09222 7.38418,3.18483 11.30331,3.49739 l 1.48767,0.13673 4.75965,0 c 0.99192,-3.6e-4 1.9928,-0.14106 2.97458,-0.27811 4.81946,-0.6696 9.52574,-2.22056 13.08389,-5.68786 3.40304,-3.31678 4.87621,-7.99068 5.05783,-12.63491 l -0.10979,-1.63726 c -0.22278,-2.7276 -0.60064,-4.88342 -2.03439,-7.2911 -2.53874,-4.26037 -7.40096,-7.19333 -11.98066,-8.82571 -7.13227,-2.54016 -16.58302,-4.26966 -23.05485,-7.50619 -5.5005,-2.7514 -9.20038,-5.82843 -10.94362,-11.94142 -0.41343,-1.44933 -0.78964,-3.85741 -0.8072,-5.35738 -0.0775,-6.67545 1.17673,-12.67234 6.54482,-17.19607 3.76164,-3.17104 8.71841,-4.71951 13.5348,-5.2954 l 2.67753,-0.31096 z m -155.43416,0.0561 5.20579,0 c 2.30292,-0.0173 6.39305,0.67717 8.62733,1.31854 2.58821,0.74255 5.12259,1.81422 7.43737,3.19216 9.86415,5.87189 14.73167,16.20436 16.5706,27.16394 l 0.69604,5.80413 0.13552,1.48801 0.14909,3.27347 c 0.14131,15.3361 -3.76659,32.40682 -17.7008,41.06139 -4.05754,2.51928 -8.36533,3.932151 -13.0892,4.496111 l -3.2722,0.2752 -3.71847,0 -1.33834,-0.12401 c -2.44969,-0.23792 -3.97307,-0.4043 -6.39595,-1.01136 -2.31298,-0.578901 -4.60807,-1.445431 -6.69354,-2.606101 -2.92723,-1.63095 -5.39457,-3.34223 -7.72842,-5.78265 -7.19611,-7.52668 -10.05963,-17.71829 -11.03866,-27.82669 l -0.28549,-4.61337 0,-1.63635 0,-4.46411 0.14911,-1.78544 0.56847,-5.50666 c 1.37282,-9.52664 5.18636,-19.33418 12.83172,-25.55578 2.16273,-1.7604 4.45761,-3.14752 6.99042,-4.30822 2.65673,-1.21723 6.17197,-2.16137 9.07385,-2.53338 l 2.82564,-0.31873 z m 85.52892,1.29139 c 1.43915,3.5e-4 2.87683,0.0361 4.31025,0.16275 5.44392,0.39883 10.76471,2.10345 15.02329,5.60931 5.29966,4.36449 7.21687,11.44818 7.13964,18.06413 l -0.13552,1.48806 c -0.38384,5.49689 -2.2381,10.84207 -6.11743,14.88064 -3.9534,4.11601 -9.43154,5.84941 -14.93485,6.58005 6.88979,11.84354 22.5261,38.656721 22.5261,38.656721 l -5.87794,0 -21.46299,-37.945591 -21.29714,0 0,37.945591 -4.90872,0 0,-85.414511 21.41939,0 c 1.43742,0 2.87655,-0.0294 4.31586,-0.026 z m 121.96459,0.026 48.93639,0 0,4.31501 -44.02752,0 0,34.96951 40.6062,0 0,4.31598 -40.6062,0 0,37.49908 46.25841,0 0,4.314951 -51.16728,0 0,-85.414531 z m -483.618,0.66369 18.5016,8.42463 -16.06323,1.21968 -2.43837,-9.64431 z m 73.46984,0.4931 31.86117,19.96683 -0.32047,10.38448 -24.62848,-19.29155 -6.91222,-11.05976 z m 203.38483,2.00345 -2.66404,0.30423 c -3.35707,0.45238 -6.87693,1.61133 -9.81633,3.29585 -1.77275,1.01487 -3.61196,2.36399 -5.05772,3.80444 -6.24414,6.2186 -8.79788,13.77349 -9.98484,22.32102 -0.31834,2.29752 -0.57226,4.67328 -0.57516,6.99466 l 0,5.35642 0.13465,1.78547 c 0.22452,3.26628 0.61159,6.47902 1.37002,9.67244 2.24453,9.4596 6.95379,18.11436 15.89784,22.72883 1.74002,0.8988 3.60513,1.55693 5.50314,2.02868 1.50812,0.37645 4.1202,0.82012 5.6522,0.83788 3.88082,0.0445 7.39685,-0.0309 11.15572,-1.19348 2.18472,-0.67704 4.31321,-1.57004 6.24688,-2.80365 8.78166,-5.60263 12.73606,-15.21705 14.17005,-25.16924 l 0.56747,-5.35741 0.14216,-1.7855 0,-2.08289 0.14159,-1.48818 -0.14737,-1.93455 0,-1.78556 c 0,-2.17849 -0.54044,-6.14157 -0.95093,-8.33344 -1.82948,-9.77666 -5.80782,-18.29705 -14.66684,-23.57073 -1.92898,-1.14734 -3.94793,-1.91937 -6.09883,-2.53248 -2.20117,-0.62794 -5.30038,-1.1255 -7.58504,-1.09281 l -3.43477,0 z m 63.97221,1.0066 0,39.28452 17.10512,0 5.80061,0 c 4.73445,-0.002 10.42089,-2.05161 13.82723,-5.37003 1.98881,-1.93747 3.40176,-4.51481 4.27039,-7.12936 2.27733,-6.86295 1.52215,-15.74132 -3.69435,-21.11767 -3.47349,-3.57886 -9.61482,-5.66001 -14.55182,-5.66746 l -22.75718,0 z m -290.09422,2.08679 26.64279,7.8133 -13.30837,29.47926 -23.25908,-16.85887 9.92466,-20.43369 z m 226.4329,0.0173 3.12386,0 c 1.99472,-0.0173 5.08384,0.43223 6.99069,1.02304 2.18661,0.67855 4.00709,1.45288 5.94956,2.68351 9.95225,6.30644 13.10816,19.123 13.23742,30.2002 l 0.1494,1.93463 -0.1494,3.57097 c -0.0202,2.14434 -0.28055,4.27537 -0.57499,6.39889 -1.23005,8.86449 -4.44574,17.98342 -12.21598,23.16472 -1.39989,0.93307 -2.87803,1.75124 -4.46223,2.32716 -4.34617,1.57887 -7.37459,1.6427 -11.89932,1.59074 -1.36535,-0.0173 -3.71157,-0.42417 -5.05781,-0.76341 -11.1317,-2.79609 -17.12959,-13.0558 -19.24607,-23.64045 -0.5193,-2.60124 -1.12664,-6.90821 -1.13103,-9.52419 l 0,-5.95232 0.4223,-5.05899 c 0.965,-9.03401 4.433,-18.83273 12.36969,-24.00375 2.46012,-1.60261 5.30414,-2.78939 8.18084,-3.37718 l 4.31307,-0.57354 z m -229.69814,0.27231 -9.2509,19.04551 -17.29401,-2.63129 -19.47093,-9.75377 22.81087,-1.73218 23.20497,-4.92827 z m 312.8622,0.70526 c 4.48732,-0.0174 8.9462,0.25468 12.92312,2.69322 5.77538,3.54159 7.3414,10.20984 6.43541,16.54604 -0.42824,2.99546 -1.44224,5.96654 -3.38044,8.33254 -1.01284,1.2351 -2.28233,2.24309 -3.65083,3.05847 -4.49495,2.67556 -8.56688,2.44721 -13.53519,2.44721 l -15.17086,0 0,-33.03484 11.8992,0 c 1.48567,0 2.98404,-0.0367 4.47959,-0.0424 z m -280.46466,8.13495 24.95656,19.54833 -2.57282,17.64846 -16.96767,17.53903 -19.01388,-24.61412 13.59781,-30.12172 z m -68.8159,5.77211 9.01159,4.51457 14.85874,2.26116 -10.63278,6.28933 a 5.7005155,5.7030087 0 0 0 -3.30309,-1.06075 5.7005155,5.7030087 0 0 0 -2.59038,0.62197 l -7.35089,-12.62535 0.006,-1.6e-4 z m -0.006,1.8e-4 -0.0988,4.27626 -9.33795,-3.51672 9.43672,-0.75951 z m 169.44263,7.26504 0,30.50533 3.12394,0 0,-30.50533 -3.12394,0 z m 9.22167,0 0,30.50533 3.2731,0 0,-30.50533 -3.2731,0 z m 8.77638,0 0,30.50533 3.12297,0 0,-30.50533 -3.12297,0 z m -159.5314,0.39236 22.93766,16.62541 -15.14231,7.14001 -2.81796,0.53183 -17.70468,-12.00526 a 5.7005155,5.7030087 0 0 0 0.45995,-2.24369 5.7005155,5.7030087 0 0 0 -0.56262,-2.4597 l 12.82984,-7.58848 z m -25.32763,2.36093 2.62716,4.51268 a 5.7005155,5.7030087 0 0 0 -0.94317,2.68645 l -1.8612,0.5232 0.17713,-7.72231 z m 93.82293,5.24313 10.58338,5.05323 0,23.34403 -12.95873,-12.10793 2.37535,-16.28929 z m -91.67114,4.74649 a 5.7005155,5.7030087 0 0 0 2.79856,2.85892 l 2.16433,17.16119 -1.66948,12.01983 -5.46935,-31.42861 2.17594,-0.61133 z m 8.73662,2.17789 17.47893,11.85319 -10.38178,36.795671 -0.83862,0.17547 -7.22881,-31.220321 -2.06944,-16.40552 a 5.7005155,5.7030087 0 0 0 3.03972,-1.1984 z m 39.70588,4.10867 18.08806,23.41468 -17.82663,0.0442 -14.97966,-16.51983 14.71823,-6.93948 z m 39.40568,7.75224 14.40634,13.46044 0,21.527541 -20.10613,0 -10.99003,-17.735751 16.68975,-17.25223 z m -81.1219,13.71431 4.35953,18.824601 -6.14713,-5.957131 1.7876,-12.86747 z m 61.87946,4.75481 10.23565,16.518901 -20.23112,0 -4.06615,-4.61341 -4.43606,-11.859001 18.49768,-0.046 z"
     id="Selection" />
</svg>
