<?xml version="1.0" encoding="UTF-8" standalone="no"?>
<svg
   xmlns:sketch="http://www.bohemiancoding.com/sketch/ns"
   xmlns:dc="http://purl.org/dc/elements/1.1/"
   xmlns:cc="http://creativecommons.org/ns#"
   xmlns:rdf="http://www.w3.org/1999/02/22-rdf-syntax-ns#"
   xmlns:svg="http://www.w3.org/2000/svg"
   xmlns="http://www.w3.org/2000/svg"
   id="svg2"
   version="1.1"
   viewBox="0 0 189.74401 114.43097"
   height="114.43097"
   width="189.744">
  <metadata
     id="metadata15">
    <rdf:RDF>
      <cc:Work
         rdf:about="">
        <dc:format>image/svg+xml</dc:format>
        <dc:type
           rdf:resource="http://purl.org/dc/dcmitype/StillImage" />
        <dc:title>2015_Logo_TUM_RGB</dc:title>
      </cc:Work>
    </rdf:RDF>
  </metadata>
  <!-- Generator: Sketch 3.4.3 (16618) - http://www.bohemiancoding.com/sketch -->
  <title
     id="title4">2015_Logo_TUM_RGB</title>
  <desc
     id="desc6">Created with Sketch.</desc>
  <defs
     id="defs8">
    <clipPath
       id="clipPath16"
       clipPathUnits="userSpaceOnUse">
      <path
         id="path18"
         d="m 0,56.694 153.197,0 L 153.197,0 0,0 0,56.694 Z" />
    </clipPath>
  </defs>
  <g
     style="fill:none;fill-rule:evenodd;stroke:none;stroke-width:1"
     transform="matrix(0.25641026,0,0,0.25641026,0,7.1743176)"
     sketch:type="MSPage"
     id="Page-1">
    <g
       style="fill:#0065bd"
       sketch:type="MSArtboardGroup"
       id="2015_Logo_TUM_RGB">
      <path
         sketch:type="MSShapeGroup"
         id="Rectangle-1"
         d="m 405,0 -35,0 0,320 -80,0 0,-320 -35,0 -255,0 0,70 70,0 0,320 70,0 0,-320 80,0 0,320 35,0 150,0 35,0 0,-320 80,0 0,320 70,0 0,-320 80,0 0,320 70,0 0,-355 0,-35 -335,0 z" />
    </g>
  </g>
</svg>
