<?xml version="1.0" encoding="UTF-8" standalone="no"?>
<svg
   xmlns:dc="http://purl.org/dc/elements/1.1/"
   xmlns:cc="http://creativecommons.org/ns#"
   xmlns:rdf="http://www.w3.org/1999/02/22-rdf-syntax-ns#"
   xmlns:svg="http://www.w3.org/2000/svg"
   xmlns="http://www.w3.org/2000/svg"
   id="svg2"
   version="1.1"
   viewBox="0 0 439.13599 114.43097"
   height="114.43097"
   width="439.13599">
  <metadata
     id="metadata15">
    <rdf:RDF>
      <cc:Work
         rdf:about="">
        <dc:format>image/svg+xml</dc:format>
        <dc:type
           rdf:resource="http://purl.org/dc/dcmitype/StillImage" />
        <dc:title>2015_Logo_TUM_RGB</dc:title>
      </cc:Work>
    </rdf:RDF>
  </metadata>
  <!-- Generator: Sketch 3.4.3 (16618) - http://www.bohemiancoding.com/sketch -->
  <title
     id="title4">2015_Logo_TUM_RGB</title>
  <desc
     id="desc6">Created with Sketch.</desc>
  <defs
     id="defs8">
    <clipPath
       id="clipPath16"
       clipPathUnits="userSpaceOnUse">
      <path
         id="path18"
         d="m 0,56.694 153.197,0 L 153.197,0 0,0 0,56.694 Z" />
    </clipPath>
  </defs>
  <g
     id="g12"
     transform="matrix(3.5257268,0,0,-3.5257262,-49.969773,157.14585)">
    <g
       clip-path="url(#clipPath16)"
       id="g14">
      <g
         transform="translate(41.9199,14.7734)"
         id="g20">
        <path
           id="path22"
           style="fill:#0055b5;fill-opacity:1;fill-rule:nonzero;stroke:none"
           d="m 0,0 -27.146,0 0,27.146 14.985,0 c -0.155,0.219 -0.334,0.421 -0.537,0.601 l -15.049,0 0,-28.347 28.347,0 0,20.031 C 0.409,19.17 0.208,18.918 0,18.673 L 0,0 Z" />
      </g>
      <g
         transform="translate(32.1899,42.5205)"
         id="g24">
        <path
           id="path26"
           style="fill:#0055b5;fill-opacity:1;fill-rule:nonzero;stroke:none"
           d="m 0,0 c 0.097,-0.195 0.182,-0.396 0.258,-0.601 l 9.472,0 0,-3.885 c 0.251,0.628 0.449,1.284 0.583,1.966 L 10.33,-2.434 10.33,0 0,0 Z" />
      </g>
      <g
         transform="translate(29.5249,36.2832)"
         id="g28">
        <path
           id="path30"
           style="fill:#6091d3;fill-opacity:1;fill-rule:nonzero;stroke:none"
           d="m 0,0 c -0.522,0 -0.945,0.423 -0.945,0.945 0,0.523 0.423,0.946 0.945,0.946 0.522,0 0.945,-0.423 0.945,-0.946 C 0.945,0.423 0.522,0 0,0 M 4.187,1.891 C 4.709,1.891 5.132,1.468 5.132,0.945 5.132,0.424 4.709,0 4.187,0 3.665,0 3.242,0.424 3.242,0.945 c 0,0.523 0.423,0.946 0.945,0.946 m 2.075,-8.366 0,0.459 c 4.111,1.454 7.309,4.985 8.188,9.444 L 13.861,3.543 C 12.999,-0.834 9.789,-4.274 5.699,-5.574 l -0.337,0 -2.968,0 0,3.878 4.434,0 0,5.283 -4.584,0 c 0,1.541 -0.737,2.988 -1.953,3.904 0.021,0.063 0.036,0.128 0.036,0.196 0,0.333 -0.269,0.601 -0.6,0.601 -0.331,0 -0.6,-0.268 -0.6,-0.601 0,-0.331 0.269,-0.599 0.6,-0.599 0.153,0 0.292,0.059 0.398,0.154 1.133,-0.86 1.818,-2.215 1.818,-3.655 l -4.584,0 0,-5.283 4.434,0 0,-3.878 -2.726,0 -0.242,0 -0.885,0 -0.016,0 c -2.718,-2.396 -4.277,-5.846 -4.277,-9.466 0,-0.832 0.082,-1.663 0.242,-2.472 l 0.589,0.117 c -0.153,0.77 -0.231,1.563 -0.231,2.355 0,3.268 1.335,6.388 3.678,8.647 l 0,-0.082 0,-7.666 0,-0.078 c -0.505,-1.141 -0.779,-2.393 -0.779,-3.687 0,-0.651 0.068,-1.288 0.201,-1.91 -0.772,-0.224 -1.358,-0.883 -1.476,-1.694 l 2.015,0 0.658,0 -0.001,0 1.436,0 c -0.145,0.998 -1,1.766 -2.037,1.775 -0.13,0.594 -0.196,1.206 -0.196,1.829 0,0.994 0.173,1.961 0.496,2.866 l 0.583,0 6.537,0 0.56,0 c 0.324,-0.905 0.496,-1.873 0.496,-2.866 0,-0.624 -0.065,-1.235 -0.196,-1.83 -1.026,-0.02 -1.87,-0.783 -2.014,-1.774 l 1.413,0 0.658,0 2.037,0 c -0.119,0.819 -0.715,1.482 -1.497,1.699 0.132,0.621 0.2,1.256 0.2,1.905 0,1.275 -0.266,2.509 -0.757,3.636 l 0,0.129 0,7.666 z" />
      </g>
      <g
         transform="translate(52.5767,28.6289)"
         id="g32">
        <path
           id="path34"
           style="fill:#0055b5;fill-opacity:1;fill-rule:nonzero;stroke:none"
           d="m 0,0 c 0.22,0 0.429,0.018 0.628,0.051 0.199,0.033 0.374,0.097 0.523,0.193 0.15,0.097 0.27,0.227 0.36,0.39 0.09,0.163 0.135,0.374 0.135,0.633 0,0.352 -0.1,0.643 -0.3,0.872 -0.2,0.23 -0.522,0.344 -0.967,0.344 l -2.354,0 L -1.975,0 0,0 Z m -2.922,3.281 3.351,0 C 1.1,3.281 1.629,3.113 2.014,2.777 2.399,2.441 2.593,1.988 2.593,1.416 2.593,0.984 2.494,0.605 2.298,0.279 2.103,-0.046 1.788,-0.269 1.356,-0.389 l 0,-0.019 c 0.206,-0.04 0.373,-0.107 0.503,-0.199 0.13,-0.094 0.235,-0.205 0.315,-0.334 0.08,-0.13 0.136,-0.275 0.169,-0.434 0.033,-0.16 0.06,-0.326 0.08,-0.499 0.014,-0.173 0.025,-0.351 0.035,-0.534 0.01,-0.182 0.026,-0.359 0.05,-0.528 0.023,-0.169 0.059,-0.333 0.109,-0.489 0.05,-0.156 0.125,-0.294 0.225,-0.413 l -1.057,0 c -0.066,0.072 -0.111,0.172 -0.135,0.299 -0.023,0.126 -0.038,0.268 -0.045,0.424 -0.006,0.156 -0.013,0.324 -0.02,0.504 -0.006,0.178 -0.026,0.355 -0.06,0.527 -0.026,0.174 -0.059,0.338 -0.099,0.494 -0.04,0.156 -0.104,0.293 -0.19,0.408 -0.086,0.118 -0.201,0.21 -0.343,0.28 -0.144,0.07 -0.329,0.105 -0.554,0.105 l -2.314,0 0,-3.041 -0.947,0 0,7.119 z" />
      </g>
      <g
         transform="translate(56.9634,27.3633)"
         id="g36">
        <path
           id="path38"
           style="fill:#0055b5;fill-opacity:1;fill-rule:nonzero;stroke:none"
           d="m 0,0 c 0,-0.312 0.042,-0.59 0.125,-0.833 0.083,-0.243 0.198,-0.445 0.344,-0.608 0.146,-0.163 0.317,-0.288 0.513,-0.373 0.197,-0.087 0.405,-0.131 0.623,-0.131 0.22,0 0.428,0.044 0.624,0.131 0.196,0.085 0.368,0.21 0.513,0.373 0.147,0.163 0.261,0.365 0.345,0.608 C 3.17,-0.59 3.211,-0.312 3.211,0 3.211,0.312 3.17,0.59 3.087,0.832 3.003,1.074 2.889,1.279 2.742,1.445 2.597,1.611 2.425,1.738 2.229,1.824 2.033,1.91 1.825,1.954 1.605,1.954 1.387,1.954 1.179,1.91 0.982,1.824 0.786,1.738 0.615,1.611 0.469,1.445 0.323,1.279 0.208,1.074 0.125,0.832 0.042,0.59 0,0.312 0,0 m -0.896,0 c 0,0.379 0.052,0.732 0.159,1.062 0.106,0.329 0.265,0.614 0.478,0.857 0.213,0.243 0.474,0.435 0.783,0.573 0.309,0.141 0.669,0.209 1.081,0.209 0.406,0 0.765,-0.068 1.078,-0.209 C 2.995,2.354 3.258,2.162 3.471,1.919 3.683,1.676 3.843,1.391 3.949,1.062 4.056,0.732 4.108,0.379 4.108,0 4.108,-0.379 4.056,-0.731 3.949,-1.057 3.843,-1.383 3.683,-1.667 3.471,-1.91 3.258,-2.152 2.995,-2.344 2.683,-2.482 2.37,-2.623 2.011,-2.692 1.605,-2.692 c -0.412,0 -0.772,0.069 -1.081,0.21 -0.309,0.138 -0.57,0.33 -0.783,0.572 -0.213,0.243 -0.372,0.527 -0.478,0.853 -0.107,0.326 -0.159,0.678 -0.159,1.057" />
      </g>
      <g
         transform="translate(66.0874,27.4131)"
         id="g40">
        <path
           id="path42"
           style="fill:#0055b5;fill-opacity:1;fill-rule:nonzero;stroke:none"
           d="m 0,0 c 0,0.239 -0.031,0.474 -0.095,0.702 -0.063,0.231 -0.159,0.435 -0.289,0.613 -0.13,0.18 -0.296,0.323 -0.498,0.43 -0.203,0.106 -0.44,0.159 -0.713,0.159 -0.286,0 -0.529,-0.056 -0.728,-0.169 C -2.522,1.622 -2.686,1.474 -2.812,1.291 -2.938,1.108 -3.029,0.9 -3.086,0.668 -3.143,0.435 -3.171,0.199 -3.171,-0.04 c 0,-0.253 0.03,-0.497 0.09,-0.732 0.06,-0.237 0.154,-0.445 0.284,-0.624 0.13,-0.179 0.298,-0.324 0.504,-0.434 0.206,-0.109 0.455,-0.165 0.748,-0.165 0.285,0 0.528,0.057 0.728,0.17 0.199,0.113 0.359,0.263 0.478,0.449 0.12,0.186 0.206,0.398 0.26,0.638 C -0.026,-0.499 0,-0.253 0,0 m -3.988,4.497 0.847,0 0,-2.662 0.02,0 c 0.14,0.285 0.359,0.493 0.658,0.623 0.3,0.129 0.629,0.193 0.987,0.193 0.399,0 0.747,-0.072 1.042,-0.218 C -0.138,2.286 0.108,2.089 0.305,1.839 0.5,1.591 0.648,1.303 0.748,0.978 0.848,0.651 0.897,0.306 0.897,-0.06 0.897,-0.426 0.85,-0.771 0.753,-1.097 0.656,-1.423 0.511,-1.707 0.314,-1.95 0.118,-2.192 -0.128,-2.385 -0.424,-2.528 -0.72,-2.671 -1.063,-2.742 -1.456,-2.742 c -0.133,0 -0.275,0.013 -0.429,0.04 -0.152,0.026 -0.305,0.071 -0.458,0.135 -0.153,0.062 -0.298,0.146 -0.433,0.249 -0.137,0.102 -0.251,0.231 -0.345,0.383 l -0.02,0 0,-0.687 -0.847,0 0,7.119 z" />
      </g>
      <g
         transform="translate(68.6001,27.3633)"
         id="g44">
        <path
           id="path46"
           style="fill:#0055b5;fill-opacity:1;fill-rule:nonzero;stroke:none"
           d="m 0,0 c 0,-0.312 0.042,-0.59 0.125,-0.833 0.083,-0.243 0.198,-0.445 0.344,-0.608 0.146,-0.163 0.317,-0.288 0.513,-0.373 0.197,-0.087 0.405,-0.131 0.623,-0.131 0.22,0 0.428,0.044 0.624,0.131 0.196,0.085 0.368,0.21 0.513,0.373 0.147,0.163 0.261,0.365 0.345,0.608 C 3.17,-0.59 3.211,-0.312 3.211,0 3.211,0.312 3.17,0.59 3.087,0.832 3.003,1.074 2.889,1.279 2.742,1.445 2.597,1.611 2.425,1.738 2.229,1.824 2.033,1.91 1.825,1.954 1.605,1.954 1.387,1.954 1.179,1.91 0.982,1.824 0.786,1.738 0.615,1.611 0.469,1.445 0.323,1.279 0.208,1.074 0.125,0.832 0.042,0.59 0,0.312 0,0 m -0.896,0 c 0,0.379 0.052,0.732 0.159,1.062 0.106,0.329 0.265,0.614 0.478,0.857 0.213,0.243 0.474,0.435 0.783,0.573 0.309,0.141 0.669,0.209 1.081,0.209 0.406,0 0.765,-0.068 1.078,-0.209 C 2.995,2.354 3.258,2.162 3.471,1.919 3.683,1.676 3.843,1.391 3.949,1.062 4.056,0.732 4.108,0.379 4.108,0 4.108,-0.379 4.056,-0.731 3.949,-1.057 3.843,-1.383 3.683,-1.667 3.471,-1.91 3.258,-2.152 2.995,-2.344 2.683,-2.482 2.37,-2.623 2.011,-2.692 1.605,-2.692 c -0.412,0 -0.772,0.069 -1.081,0.21 -0.309,0.138 -0.57,0.33 -0.783,0.572 -0.213,0.243 -0.372,0.527 -0.478,0.853 -0.107,0.326 -0.159,0.678 -0.159,1.057" />
      </g>
      <g
         transform="translate(74.8823,29.9453)"
         id="g48">
        <path
           id="path50"
           style="fill:#0055b5;fill-opacity:1;fill-rule:nonzero;stroke:none"
           d="m 0,0 1.027,0 0,-0.748 -1.027,0 0,-3.2 c 0,-0.1 0.009,-0.18 0.025,-0.239 0.017,-0.061 0.048,-0.107 0.095,-0.14 0.046,-0.033 0.111,-0.055 0.194,-0.066 0.083,-0.009 0.191,-0.013 0.325,-0.013 l 0.388,0 0,-0.748 -0.648,0 c -0.219,0 -0.407,0.014 -0.564,0.045 -0.156,0.029 -0.282,0.084 -0.378,0.164 -0.096,0.08 -0.168,0.193 -0.214,0.339 -0.047,0.145 -0.071,0.338 -0.071,0.579 l 0,3.279 -0.877,0 0,0.748 0.877,0 0,1.546 L 0,1.546 0,0 Z" />
      </g>
      <path
         id="path52"
         style="fill:#0055b5;fill-opacity:1;fill-rule:nonzero;stroke:none"
         d="m 76.897,29.945 0.847,0 0,-5.154 -0.847,0 0,5.154 z m 0.847,0.928 -0.847,0 0,1.037 0.847,0 0,-1.037 z" />
      <g
         transform="translate(82.5601,28.291)"
         id="g54">
        <path
           id="path56"
           style="fill:#0055b5;fill-opacity:1;fill-rule:nonzero;stroke:none"
           d="m 0,0 c -0.066,0.324 -0.208,0.578 -0.424,0.758 -0.216,0.179 -0.5,0.268 -0.852,0.268 -0.306,0 -0.562,-0.056 -0.768,-0.169 -0.206,-0.113 -0.37,-0.263 -0.493,-0.449 -0.123,-0.185 -0.211,-0.4 -0.265,-0.642 -0.052,-0.244 -0.08,-0.495 -0.08,-0.754 0,-0.239 0.028,-0.472 0.085,-0.698 0.057,-0.226 0.145,-0.427 0.265,-0.603 0.119,-0.176 0.274,-0.317 0.464,-0.424 0.189,-0.106 0.42,-0.16 0.692,-0.16 0.412,0 0.738,0.111 0.978,0.335 0.239,0.223 0.385,0.53 0.438,0.922 l 0.867,0 C 0.814,-2.248 0.575,-2.739 0.189,-3.092 -0.196,-3.443 -0.715,-3.62 -1.366,-3.62 c -0.392,0 -0.739,0.065 -1.042,0.194 -0.302,0.13 -0.555,0.311 -0.757,0.543 -0.203,0.233 -0.356,0.511 -0.459,0.833 -0.104,0.322 -0.154,0.677 -0.154,1.062 0,0.385 0.049,0.746 0.149,1.082 0.1,0.336 0.251,0.629 0.453,0.878 0.203,0.249 0.455,0.445 0.758,0.588 0.303,0.143 0.66,0.213 1.072,0.213 0.292,0 0.567,-0.034 0.823,-0.103 C -0.268,1.6 -0.04,1.492 0.16,1.346 0.359,1.199 0.521,1.015 0.644,0.792 0.767,0.569 0.845,0.305 0.878,0 L 0,0 Z" />
      </g>
      <g
         transform="translate(84.9331,26.416)"
         id="g58">
        <path
           id="path60"
           style="fill:#0055b5;fill-opacity:1;fill-rule:nonzero;stroke:none"
           d="m 0,0 c 0.007,-0.193 0.05,-0.353 0.13,-0.479 0.08,-0.126 0.184,-0.228 0.314,-0.304 0.129,-0.076 0.276,-0.131 0.439,-0.164 0.163,-0.033 0.331,-0.051 0.504,-0.051 0.133,0 0.272,0.011 0.418,0.031 0.146,0.02 0.281,0.056 0.404,0.11 0.123,0.052 0.225,0.13 0.304,0.234 0.08,0.102 0.12,0.234 0.12,0.394 0,0.166 -0.049,0.3 -0.145,0.403 C 2.392,0.277 2.266,0.361 2.109,0.429 1.953,0.495 1.773,0.55 1.571,0.594 1.368,0.637 1.16,0.682 0.947,0.728 0.734,0.773 0.529,0.83 0.329,0.896 0.13,0.963 -0.05,1.05 -0.209,1.156 c -0.159,0.107 -0.288,0.242 -0.384,0.409 -0.096,0.166 -0.144,0.372 -0.144,0.619 0,0.259 0.057,0.482 0.175,0.668 0.116,0.185 0.265,0.337 0.448,0.453 0.182,0.117 0.388,0.203 0.618,0.259 0.229,0.057 0.457,0.084 0.683,0.084 0.286,0 0.553,-0.024 0.802,-0.074 C 2.239,3.524 2.458,3.438 2.647,3.314 2.837,3.191 2.988,3.025 3.102,2.816 3.214,2.607 3.281,2.346 3.301,2.033 l -0.848,0 C 2.439,2.199 2.395,2.338 2.318,2.447 2.242,2.557 2.149,2.646 2.039,2.712 1.93,2.778 1.807,2.826 1.671,2.856 1.534,2.887 1.396,2.901 1.257,2.901 1.131,2.901 1.003,2.891 0.873,2.871 0.743,2.852 0.625,2.816 0.519,2.766 0.412,2.716 0.326,2.646 0.26,2.561 0.193,2.473 0.16,2.366 0.16,2.238 0.16,2.085 0.211,1.961 0.314,1.867 0.417,1.773 0.549,1.695 0.708,1.631 0.868,1.568 1.047,1.515 1.247,1.471 1.446,1.428 1.646,1.383 1.845,1.336 2.058,1.289 2.266,1.233 2.468,1.167 2.671,1.101 2.851,1.014 3.007,0.904 3.163,0.795 3.289,0.656 3.386,0.491 3.481,0.326 3.53,0.12 3.53,-0.125 3.53,-0.43 3.465,-0.687 3.336,-0.896 3.206,-1.104 3.036,-1.271 2.827,-1.397 2.618,-1.523 2.382,-1.613 2.119,-1.666 1.856,-1.719 1.596,-1.745 1.337,-1.745 c -0.293,0 -0.567,0.032 -0.823,0.095 -0.256,0.062 -0.484,0.162 -0.683,0.298 -0.199,0.137 -0.359,0.317 -0.478,0.54 -0.121,0.222 -0.187,0.493 -0.2,0.812 L 0,0 Z" />
      </g>
      <g
         transform="translate(95.3628,27.4531)"
         id="g62">
        <path
           id="path64"
           style="fill:#0055b5;fill-opacity:1;fill-rule:nonzero;stroke:none"
           d="m 0,0 c -0.08,-0.061 -0.18,-0.107 -0.3,-0.141 -0.119,-0.033 -0.245,-0.06 -0.379,-0.084 -0.133,-0.023 -0.273,-0.043 -0.423,-0.06 -0.15,-0.016 -0.294,-0.037 -0.434,-0.065 -0.14,-0.026 -0.273,-0.059 -0.399,-0.099 -0.126,-0.039 -0.236,-0.095 -0.329,-0.164 -0.092,-0.071 -0.168,-0.158 -0.224,-0.265 -0.057,-0.106 -0.085,-0.239 -0.085,-0.399 0,-0.139 0.028,-0.257 0.085,-0.354 0.056,-0.096 0.13,-0.174 0.219,-0.234 0.09,-0.06 0.195,-0.104 0.315,-0.129 0.119,-0.027 0.245,-0.041 0.379,-0.041 0.278,0 0.517,0.039 0.718,0.115 0.199,0.076 0.362,0.173 0.488,0.289 0.126,0.117 0.22,0.242 0.279,0.379 C -0.03,-1.115 0,-0.987 0,-0.867 L 0,0 Z M 1.376,-2.643 C 1.223,-2.736 1.021,-2.782 0.768,-2.782 c -0.22,0 -0.394,0.063 -0.524,0.189 -0.13,0.126 -0.194,0.329 -0.194,0.609 -0.234,-0.28 -0.504,-0.483 -0.813,-0.609 -0.309,-0.126 -0.643,-0.189 -1.002,-0.189 -0.233,0 -0.454,0.026 -0.663,0.079 -0.21,0.054 -0.39,0.139 -0.544,0.255 -0.153,0.116 -0.274,0.265 -0.364,0.448 -0.089,0.184 -0.134,0.404 -0.134,0.664 0,0.292 0.05,0.531 0.15,0.717 0.099,0.186 0.23,0.336 0.393,0.449 0.163,0.113 0.349,0.201 0.559,0.264 0.209,0.063 0.424,0.115 0.642,0.155 0.234,0.046 0.455,0.081 0.664,0.105 0.209,0.023 0.394,0.056 0.553,0.099 0.159,0.043 0.286,0.107 0.379,0.19 0.093,0.083 0.14,0.205 0.14,0.364 0,0.186 -0.035,0.335 -0.105,0.448 -0.07,0.113 -0.16,0.199 -0.269,0.26 -0.11,0.059 -0.233,0.099 -0.369,0.119 -0.136,0.02 -0.271,0.03 -0.404,0.03 -0.359,0 -0.658,-0.068 -0.897,-0.204 C -2.273,1.523 -2.403,1.266 -2.423,0.887 l -0.848,0 c 0.013,0.319 0.08,0.589 0.2,0.808 0.12,0.219 0.279,0.397 0.478,0.534 0.199,0.135 0.429,0.234 0.689,0.293 0.258,0.06 0.531,0.089 0.817,0.089 0.233,0 0.464,-0.015 0.692,-0.048 C -0.165,2.529 0.043,2.461 0.229,2.357 0.415,2.255 0.564,2.109 0.678,1.924 0.791,1.738 0.848,1.495 0.848,1.196 l 0,-2.652 c 0,-0.2 0.01,-0.346 0.034,-0.439 0.023,-0.093 0.101,-0.14 0.234,-0.14 0.08,0 0.166,0.017 0.26,0.051 l 0,-0.659 z" />
      </g>
      <g
         transform="translate(97.5259,29.9453)"
         id="g66">
        <path
           id="path68"
           style="fill:#0055b5;fill-opacity:1;fill-rule:nonzero;stroke:none"
           d="m 0,0 0.798,0 0,-0.817 0.02,0 c 0.179,0.319 0.411,0.554 0.693,0.708 0.283,0.152 0.61,0.228 0.982,0.228 0.339,0 0.621,-0.046 0.848,-0.139 0.225,-0.093 0.409,-0.222 0.548,-0.388 0.139,-0.166 0.238,-0.364 0.295,-0.594 0.055,-0.229 0.084,-0.483 0.084,-0.763 l 0,-3.389 -0.847,0 0,3.489 c 0,0.319 -0.094,0.571 -0.279,0.758 -0.187,0.186 -0.443,0.279 -0.769,0.279 -0.259,0 -0.483,-0.04 -0.673,-0.12 C 1.511,-0.827 1.354,-0.94 1.227,-1.086 1.101,-1.232 1.006,-1.404 0.942,-1.6 0.88,-1.797 0.848,-2.011 0.848,-2.243 l 0,-2.911 L 0,-5.154 0,0 Z" />
      </g>
      <g
         transform="translate(103.688,27.3232)"
         id="g70">
        <path
           id="path72"
           style="fill:#0055b5;fill-opacity:1;fill-rule:nonzero;stroke:none"
           d="m 0,0 c 0,-0.239 0.032,-0.474 0.095,-0.703 0.063,-0.23 0.16,-0.434 0.29,-0.613 0.129,-0.179 0.295,-0.323 0.498,-0.429 0.203,-0.107 0.44,-0.16 0.713,-0.16 0.286,0 0.528,0.056 0.727,0.17 0.2,0.113 0.363,0.261 0.49,0.443 0.125,0.184 0.217,0.391 0.274,0.624 0.056,0.232 0.084,0.468 0.084,0.708 0,0.252 -0.029,0.496 -0.09,0.732 C 3.021,1.009 2.927,1.216 2.797,1.396 2.668,1.575 2.5,1.72 2.294,1.829 2.088,1.939 1.839,1.994 1.546,1.994 1.253,1.994 1.009,1.937 0.813,1.825 0.617,1.712 0.459,1.562 0.34,1.376 0.22,1.19 0.134,0.978 0.08,0.737 0.027,0.499 0,0.253 0,0 m 3.989,-2.532 -0.847,0 0,0.697 -0.021,0 C 2.981,-2.12 2.763,-2.328 2.463,-2.458 2.164,-2.587 1.835,-2.652 1.477,-2.652 c -0.4,0 -0.748,0.073 -1.042,0.219 -0.296,0.146 -0.542,0.344 -0.739,0.593 -0.196,0.249 -0.343,0.536 -0.443,0.862 -0.1,0.327 -0.149,0.672 -0.149,1.038 0,0.365 0.047,0.709 0.144,1.032 0.096,0.322 0.242,0.606 0.439,0.852 0.196,0.246 0.441,0.441 0.737,0.583 0.296,0.144 0.639,0.214 1.032,0.214 0.133,0 0.276,-0.012 0.429,-0.039 C 2.038,2.675 2.19,2.63 2.344,2.567 2.496,2.505 2.641,2.421 2.777,2.318 2.913,2.215 3.028,2.087 3.121,1.935 l 0.021,0 0,2.652 0.847,0 0,-7.119 z" />
      </g>
      <g
         transform="translate(49.6548,21.2988)"
         id="g74">
        <path
           id="path76"
           style="fill:#0055b5;fill-opacity:1;fill-rule:nonzero;stroke:none"
           d="m 0,0 4.916,0 0,-0.797 -3.969,0 0,-2.264 3.699,0 0,-0.797 -3.699,0 0,-2.463 3.999,0 0,-0.798 L 0,-7.119 0,0 Z" />
      </g>
      <g
         transform="translate(55.6069,19.334)"
         id="g78">
        <path
           id="path80"
           style="fill:#0055b5;fill-opacity:1;fill-rule:nonzero;stroke:none"
           d="m 0,0 0.798,0 0,-0.758 0.02,0 c 0.385,0.586 0.941,0.878 1.665,0.878 0.32,0 0.609,-0.066 0.868,-0.199 0.259,-0.133 0.442,-0.358 0.548,-0.679 0.173,0.279 0.402,0.496 0.688,0.649 0.286,0.153 0.595,0.229 0.928,0.229 0.258,0 0.493,-0.028 0.703,-0.085 0.209,-0.056 0.388,-0.144 0.538,-0.264 0.149,-0.119 0.265,-0.274 0.348,-0.463 0.083,-0.19 0.125,-0.417 0.125,-0.683 l 0,-3.779 -0.847,0 0,3.381 c 0,0.158 -0.014,0.308 -0.04,0.447 -0.027,0.14 -0.076,0.262 -0.15,0.365 -0.073,0.103 -0.174,0.184 -0.303,0.244 -0.13,0.06 -0.298,0.09 -0.504,0.09 -0.412,0 -0.739,-0.12 -0.983,-0.359 C 4.16,-1.226 4.039,-1.545 4.039,-1.943 l 0,-3.211 -0.848,0 0,3.381 c 0,0.166 -0.015,0.318 -0.045,0.458 -0.03,0.139 -0.082,0.26 -0.154,0.364 -0.073,0.102 -0.174,0.182 -0.3,0.238 -0.126,0.057 -0.282,0.086 -0.468,0.086 -0.252,0 -0.465,-0.051 -0.638,-0.15 C 1.413,-0.877 1.271,-0.996 1.162,-1.137 1.053,-1.275 0.973,-1.42 0.923,-1.57 0.873,-1.719 0.848,-1.844 0.848,-1.943 l 0,-3.211 L 0,-5.154 0,0 Z" />
      </g>
      <g
         transform="translate(68.1304,16.8027)"
         id="g82">
        <path
           id="path84"
           style="fill:#0055b5;fill-opacity:1;fill-rule:nonzero;stroke:none"
           d="m 0,0 c 0,0.238 -0.031,0.473 -0.095,0.702 -0.063,0.23 -0.159,0.435 -0.289,0.613 -0.13,0.18 -0.296,0.323 -0.498,0.429 -0.203,0.107 -0.44,0.16 -0.713,0.16 -0.286,0 -0.529,-0.056 -0.728,-0.17 C -2.522,1.621 -2.686,1.473 -2.812,1.291 -2.938,1.107 -3.029,0.9 -3.086,0.668 -3.143,0.435 -3.171,0.199 -3.171,-0.041 c 0,-0.252 0.03,-0.496 0.09,-0.732 0.06,-0.237 0.154,-0.444 0.284,-0.623 0.13,-0.18 0.298,-0.325 0.504,-0.434 0.206,-0.109 0.455,-0.165 0.748,-0.165 0.285,0 0.528,0.057 0.728,0.17 0.199,0.112 0.359,0.263 0.478,0.448 0.12,0.187 0.206,0.398 0.26,0.639 C -0.026,-0.499 0,-0.254 0,0 m -3.988,4.496 0.847,0 0,-2.662 0.02,0 c 0.14,0.285 0.359,0.494 0.658,0.623 0.3,0.13 0.629,0.194 0.987,0.194 0.399,0 0.747,-0.073 1.042,-0.219 C -0.138,2.286 0.108,2.088 0.305,1.839 0.5,1.59 0.648,1.303 0.748,0.977 0.848,0.65 0.897,0.305 0.897,-0.061 0.897,-0.426 0.85,-0.771 0.753,-1.098 0.656,-1.424 0.511,-1.707 0.314,-1.95 0.118,-2.193 -0.128,-2.385 -0.424,-2.528 -0.72,-2.672 -1.063,-2.742 -1.456,-2.742 c -0.133,0 -0.275,0.013 -0.429,0.039 -0.152,0.027 -0.305,0.072 -0.458,0.135 -0.153,0.063 -0.298,0.146 -0.433,0.25 -0.137,0.102 -0.251,0.23 -0.345,0.382 l -0.02,0 0,-0.687 -0.847,0 0,7.119 z" />
      </g>
      <g
         transform="translate(73.605,17.251)"
         id="g86">
        <path
           id="path88"
           style="fill:#0055b5;fill-opacity:1;fill-rule:nonzero;stroke:none"
           d="m 0,0 c -0.014,0.199 -0.059,0.389 -0.135,0.567 -0.076,0.18 -0.179,0.335 -0.308,0.465 -0.13,0.129 -0.285,0.233 -0.464,0.309 -0.18,0.076 -0.372,0.115 -0.578,0.115 -0.22,0 -0.418,-0.039 -0.594,-0.115 C -2.255,1.265 -2.406,1.159 -2.532,1.026 -2.659,0.894 -2.759,0.739 -2.832,0.563 -2.905,0.387 -2.948,0.199 -2.962,0 L 0,0 Z M 0.827,-1.437 C 0.714,-2.008 0.465,-2.443 0.078,-2.742 c -0.387,-0.3 -0.873,-0.448 -1.459,-0.448 -0.413,0 -0.771,0.068 -1.074,0.204 -0.303,0.135 -0.558,0.323 -0.765,0.563 -0.206,0.238 -0.361,0.526 -0.464,0.858 -0.103,0.332 -0.162,0.694 -0.174,1.086 0,0.386 0.059,0.744 0.178,1.072 0.12,0.329 0.288,0.613 0.504,0.852 0.216,0.24 0.472,0.426 0.768,0.559 0.296,0.133 0.62,0.199 0.972,0.199 0.458,0 0.839,-0.095 1.142,-0.284 C 0.008,1.729 0.251,1.489 0.434,1.196 0.616,0.903 0.743,0.585 0.812,0.239 0.883,-0.106 0.91,-0.436 0.897,-0.748 l -3.859,0 c -0.006,-0.226 0.021,-0.44 0.08,-0.644 0.06,-0.203 0.156,-0.381 0.289,-0.538 0.133,-0.156 0.303,-0.28 0.509,-0.374 0.206,-0.092 0.448,-0.139 0.728,-0.139 0.352,0 0.645,0.083 0.877,0.249 0.233,0.166 0.386,0.42 0.459,0.757 l 0.847,0 z" />
      </g>
      <g
         transform="translate(75.9976,16.7129)"
         id="g90">
        <path
           id="path92"
           style="fill:#0055b5;fill-opacity:1;fill-rule:nonzero;stroke:none"
           d="m 0,0 c 0,-0.24 0.032,-0.475 0.095,-0.703 0.063,-0.231 0.16,-0.434 0.29,-0.613 0.129,-0.18 0.295,-0.323 0.498,-0.43 0.203,-0.106 0.44,-0.159 0.713,-0.159 0.286,0 0.528,0.056 0.727,0.17 0.2,0.112 0.363,0.26 0.49,0.443 0.125,0.183 0.217,0.391 0.274,0.624 0.056,0.232 0.084,0.468 0.084,0.707 0,0.253 -0.029,0.497 -0.09,0.732 C 3.021,1.008 2.927,1.216 2.797,1.396 2.668,1.574 2.5,1.719 2.294,1.829 2.088,1.939 1.839,1.994 1.546,1.994 1.253,1.994 1.009,1.937 0.813,1.824 0.617,1.711 0.459,1.562 0.34,1.375 0.22,1.189 0.134,0.977 0.08,0.737 0.027,0.498 0,0.252 0,0 m 3.989,-2.533 -0.847,0 0,0.697 -0.021,0 C 2.981,-2.121 2.763,-2.328 2.463,-2.459 2.164,-2.588 1.835,-2.652 1.477,-2.652 c -0.4,0 -0.748,0.072 -1.042,0.218 -0.296,0.147 -0.542,0.344 -0.739,0.594 -0.196,0.249 -0.343,0.536 -0.443,0.862 -0.1,0.326 -0.149,0.671 -0.149,1.037 0,0.366 0.047,0.71 0.144,1.033 0.096,0.322 0.242,0.605 0.439,0.851 0.196,0.246 0.441,0.442 0.737,0.584 0.296,0.143 0.639,0.214 1.032,0.214 0.133,0 0.276,-0.012 0.429,-0.04 C 2.038,2.675 2.19,2.63 2.344,2.566 2.496,2.504 2.641,2.42 2.777,2.318 2.913,2.215 3.028,2.086 3.121,1.934 l 0.021,0 0,2.652 0.847,0 0,-7.119 z" />
      </g>
      <g
         transform="translate(81.9106,16.7129)"
         id="g94">
        <path
           id="path96"
           style="fill:#0055b5;fill-opacity:1;fill-rule:nonzero;stroke:none"
           d="m 0,0 c 0,-0.24 0.032,-0.475 0.095,-0.703 0.063,-0.231 0.16,-0.434 0.29,-0.613 0.129,-0.18 0.295,-0.323 0.498,-0.43 0.203,-0.106 0.44,-0.159 0.713,-0.159 0.286,0 0.528,0.056 0.727,0.17 0.2,0.112 0.363,0.26 0.49,0.443 0.125,0.183 0.217,0.391 0.274,0.624 0.056,0.232 0.084,0.468 0.084,0.707 0,0.253 -0.029,0.497 -0.09,0.732 C 3.021,1.008 2.927,1.216 2.797,1.396 2.668,1.574 2.5,1.719 2.294,1.829 2.088,1.939 1.839,1.994 1.546,1.994 1.253,1.994 1.009,1.937 0.813,1.824 0.617,1.711 0.459,1.562 0.34,1.375 0.22,1.189 0.134,0.977 0.08,0.737 0.027,0.498 0,0.252 0,0 m 3.989,-2.533 -0.847,0 0,0.697 -0.021,0 C 2.981,-2.121 2.763,-2.328 2.463,-2.459 2.164,-2.588 1.835,-2.652 1.477,-2.652 c -0.4,0 -0.748,0.072 -1.042,0.218 -0.296,0.147 -0.542,0.344 -0.739,0.594 -0.196,0.249 -0.343,0.536 -0.443,0.862 -0.1,0.326 -0.149,0.671 -0.149,1.037 0,0.366 0.047,0.71 0.144,1.033 0.096,0.322 0.242,0.605 0.439,0.851 0.196,0.246 0.441,0.442 0.737,0.584 0.296,0.143 0.639,0.214 1.032,0.214 0.133,0 0.276,-0.012 0.429,-0.04 C 2.038,2.675 2.19,2.63 2.344,2.566 2.496,2.504 2.641,2.42 2.777,2.318 2.913,2.215 3.028,2.086 3.121,1.934 l 0.021,0 0,2.652 0.847,0 0,-7.119 z" />
      </g>
      <g
         transform="translate(90.7856,17.251)"
         id="g98">
        <path
           id="path100"
           style="fill:#0055b5;fill-opacity:1;fill-rule:nonzero;stroke:none"
           d="m 0,0 c -0.014,0.199 -0.059,0.389 -0.135,0.567 -0.076,0.18 -0.179,0.335 -0.308,0.465 -0.13,0.129 -0.285,0.233 -0.464,0.309 -0.18,0.076 -0.372,0.115 -0.578,0.115 -0.22,0 -0.418,-0.039 -0.594,-0.115 C -2.255,1.265 -2.406,1.159 -2.532,1.026 -2.659,0.894 -2.759,0.739 -2.832,0.563 -2.905,0.387 -2.948,0.199 -2.962,0 L 0,0 Z M 0.827,-1.437 C 0.714,-2.008 0.465,-2.443 0.078,-2.742 c -0.387,-0.3 -0.873,-0.448 -1.459,-0.448 -0.413,0 -0.771,0.068 -1.074,0.204 -0.303,0.135 -0.558,0.323 -0.765,0.563 -0.206,0.238 -0.361,0.526 -0.464,0.858 -0.103,0.332 -0.162,0.694 -0.174,1.086 0,0.386 0.059,0.744 0.178,1.072 0.12,0.329 0.288,0.613 0.504,0.852 0.216,0.24 0.472,0.426 0.768,0.559 0.296,0.133 0.62,0.199 0.972,0.199 0.458,0 0.839,-0.095 1.142,-0.284 C 0.008,1.729 0.251,1.489 0.434,1.196 0.616,0.903 0.743,0.585 0.812,0.239 0.883,-0.106 0.91,-0.436 0.897,-0.748 l -3.859,0 c -0.006,-0.226 0.021,-0.44 0.08,-0.644 0.06,-0.203 0.156,-0.381 0.289,-0.538 0.133,-0.156 0.303,-0.28 0.509,-0.374 0.206,-0.092 0.448,-0.139 0.728,-0.139 0.352,0 0.645,0.083 0.877,0.249 0.233,0.166 0.386,0.42 0.459,0.757 l 0.847,0 z" />
      </g>
      <g
         transform="translate(93.1782,16.7129)"
         id="g102">
        <path
           id="path104"
           style="fill:#0055b5;fill-opacity:1;fill-rule:nonzero;stroke:none"
           d="m 0,0 c 0,-0.24 0.032,-0.475 0.095,-0.703 0.063,-0.231 0.16,-0.434 0.29,-0.613 0.129,-0.18 0.295,-0.323 0.498,-0.43 0.203,-0.106 0.44,-0.159 0.713,-0.159 0.286,0 0.528,0.056 0.727,0.17 0.2,0.112 0.363,0.26 0.49,0.443 0.125,0.183 0.217,0.391 0.274,0.624 0.056,0.232 0.084,0.468 0.084,0.707 0,0.253 -0.029,0.497 -0.09,0.732 C 3.021,1.008 2.927,1.216 2.797,1.396 2.668,1.574 2.5,1.719 2.294,1.829 2.088,1.939 1.839,1.994 1.546,1.994 1.253,1.994 1.009,1.937 0.813,1.824 0.617,1.711 0.459,1.562 0.34,1.375 0.22,1.189 0.134,0.977 0.08,0.737 0.027,0.498 0,0.252 0,0 m 3.989,-2.533 -0.847,0 0,0.697 -0.021,0 C 2.981,-2.121 2.763,-2.328 2.463,-2.459 2.164,-2.588 1.835,-2.652 1.477,-2.652 c -0.4,0 -0.748,0.072 -1.042,0.218 -0.296,0.147 -0.542,0.344 -0.739,0.594 -0.196,0.249 -0.343,0.536 -0.443,0.862 -0.1,0.326 -0.149,0.671 -0.149,1.037 0,0.366 0.047,0.71 0.144,1.033 0.096,0.322 0.242,0.605 0.439,0.851 0.196,0.246 0.441,0.442 0.737,0.584 0.296,0.143 0.639,0.214 1.032,0.214 0.133,0 0.276,-0.012 0.429,-0.04 C 2.038,2.675 2.19,2.63 2.344,2.566 2.496,2.504 2.641,2.42 2.777,2.318 2.913,2.215 3.028,2.086 3.121,1.934 l 0.021,0 0,2.652 0.847,0 0,-7.119 z" />
      </g>
      <g
         transform="translate(105.5024,19.2148)"
         id="g106">
        <path
           id="path108"
           style="fill:#0055b5;fill-opacity:1;fill-rule:nonzero;stroke:none"
           d="m 0,0 c -0.053,0.512 -0.237,0.883 -0.553,1.111 -0.316,0.231 -0.719,0.345 -1.212,0.345 -0.199,0 -0.395,-0.02 -0.588,-0.06 C -2.546,1.356 -2.717,1.289 -2.866,1.197 -3.016,1.104 -3.136,0.979 -3.226,0.822 -3.315,0.666 -3.36,0.473 -3.36,0.239 c 0,-0.219 0.065,-0.397 0.194,-0.533 0.13,-0.136 0.303,-0.247 0.519,-0.334 0.216,-0.087 0.46,-0.158 0.733,-0.214 0.272,-0.056 0.552,-0.119 0.838,-0.185 0.285,-0.067 0.564,-0.145 0.837,-0.235 0.272,-0.09 0.515,-0.211 0.728,-0.363 0.212,-0.153 0.384,-0.348 0.513,-0.584 0.13,-0.235 0.194,-0.526 0.194,-0.872 0,-0.379 -0.084,-0.702 -0.254,-0.972 -0.169,-0.269 -0.386,-0.488 -0.653,-0.658 -0.266,-0.17 -0.563,-0.295 -0.892,-0.374 -0.329,-0.079 -0.657,-0.12 -0.982,-0.12 -0.399,0 -0.776,0.051 -1.132,0.15 -0.355,0.1 -0.668,0.252 -0.937,0.459 -0.269,0.205 -0.482,0.467 -0.638,0.783 -0.156,0.315 -0.234,0.689 -0.234,1.122 l 0.897,0 c 0,-0.3 0.058,-0.558 0.174,-0.774 0.116,-0.216 0.269,-0.393 0.459,-0.533 0.189,-0.14 0.409,-0.242 0.658,-0.309 0.249,-0.067 0.51,-0.1 0.782,-0.1 0.213,0 0.428,0.02 0.644,0.059 0.216,0.041 0.41,0.109 0.583,0.205 0.173,0.096 0.312,0.228 0.419,0.394 0.106,0.166 0.159,0.379 0.159,0.638 0,0.246 -0.064,0.445 -0.194,0.598 -0.129,0.154 -0.301,0.279 -0.513,0.374 -0.213,0.096 -0.456,0.176 -0.729,0.24 -0.272,0.063 -0.551,0.125 -0.836,0.184 -0.287,0.061 -0.566,0.131 -0.838,0.215 -0.273,0.082 -0.517,0.193 -0.734,0.334 -0.216,0.139 -0.388,0.315 -0.517,0.527 -0.13,0.213 -0.196,0.483 -0.196,0.809 0,0.359 0.074,0.67 0.22,0.932 0.147,0.262 0.341,0.478 0.583,0.648 0.243,0.17 0.519,0.296 0.828,0.379 0.309,0.083 0.626,0.125 0.952,0.125 0.366,0 0.704,-0.043 1.017,-0.13 C -0.396,2.037 -0.123,1.901 0.11,1.715 0.343,1.529 0.528,1.295 0.668,1.012 0.808,0.729 0.884,0.393 0.897,0 L 0,0 Z" />
      </g>
      <g
         transform="translate(109.73,13.4922)"
         id="g110">
        <path
           id="path112"
           style="fill:#0055b5;fill-opacity:1;fill-rule:nonzero;stroke:none"
           d="m 0,0 c -0.1,-0.253 -0.197,-0.466 -0.294,-0.639 -0.097,-0.173 -0.201,-0.314 -0.314,-0.423 -0.114,-0.11 -0.243,-0.19 -0.389,-0.24 -0.147,-0.05 -0.313,-0.075 -0.498,-0.075 -0.101,0 -0.2,0.008 -0.3,0.021 -0.1,0.012 -0.196,0.036 -0.289,0.069 l 0,0.778 c 0.08,-0.026 0.161,-0.053 0.244,-0.08 0.083,-0.026 0.168,-0.04 0.255,-0.04 0.173,0 0.313,0.04 0.419,0.12 0.105,0.079 0.199,0.197 0.278,0.349 l 0.35,0.877 -2.044,5.125 0.957,0 1.506,-4.217 0.019,0 1.447,4.217 0.896,0 L 0,0 Z" />
      </g>
      <g
         transform="translate(113.2095,15.8047)"
         id="g114">
        <path
           id="path116"
           style="fill:#0055b5;fill-opacity:1;fill-rule:nonzero;stroke:none"
           d="m 0,0 c 0.007,-0.192 0.05,-0.352 0.13,-0.479 0.08,-0.125 0.184,-0.227 0.314,-0.303 0.129,-0.077 0.276,-0.132 0.439,-0.165 0.163,-0.033 0.331,-0.05 0.504,-0.05 0.133,0 0.272,0.011 0.418,0.03 0.146,0.02 0.281,0.057 0.404,0.11 0.123,0.052 0.225,0.13 0.304,0.234 0.08,0.103 0.12,0.234 0.12,0.394 0,0.167 -0.049,0.301 -0.145,0.404 C 2.392,0.277 2.266,0.362 2.109,0.43 1.953,0.496 1.773,0.551 1.571,0.594 1.368,0.637 1.16,0.682 0.947,0.729 0.734,0.774 0.529,0.831 0.329,0.897 0.13,0.964 -0.05,1.051 -0.209,1.156 c -0.159,0.108 -0.288,0.243 -0.384,0.41 -0.096,0.166 -0.144,0.371 -0.144,0.618 0,0.259 0.057,0.482 0.175,0.668 0.116,0.186 0.265,0.337 0.448,0.454 0.182,0.116 0.388,0.202 0.618,0.258 0.229,0.057 0.457,0.085 0.683,0.085 0.286,0 0.553,-0.024 0.802,-0.075 C 2.239,3.525 2.458,3.438 2.647,3.315 2.837,3.192 2.988,3.026 3.102,2.816 3.214,2.607 3.281,2.347 3.301,2.034 l -0.848,0 C 2.439,2.2 2.395,2.338 2.318,2.448 2.242,2.558 2.149,2.646 2.039,2.713 1.93,2.779 1.807,2.827 1.671,2.857 1.534,2.887 1.396,2.902 1.257,2.902 1.131,2.902 1.003,2.892 0.873,2.871 0.743,2.852 0.625,2.816 0.519,2.766 0.412,2.717 0.326,2.647 0.26,2.561 0.193,2.474 0.16,2.367 0.16,2.239 0.16,2.086 0.211,1.961 0.314,1.868 0.417,1.773 0.549,1.695 0.708,1.632 0.868,1.568 1.047,1.516 1.247,1.472 1.446,1.428 1.646,1.383 1.845,1.336 2.058,1.29 2.266,1.234 2.468,1.168 2.671,1.102 2.851,1.014 3.007,0.904 3.163,0.795 3.289,0.657 3.386,0.492 3.481,0.326 3.53,0.121 3.53,-0.125 3.53,-0.43 3.465,-0.686 3.336,-0.895 3.206,-1.104 3.036,-1.271 2.827,-1.396 2.618,-1.522 2.382,-1.612 2.119,-1.665 1.856,-1.718 1.596,-1.744 1.337,-1.744 c -0.293,0 -0.567,0.031 -0.823,0.094 -0.256,0.063 -0.484,0.163 -0.683,0.299 -0.199,0.136 -0.359,0.316 -0.478,0.539 -0.121,0.222 -0.187,0.494 -0.2,0.812 L 0,0 Z" />
      </g>
      <g
         transform="translate(118.853,19.334)"
         id="g118">
        <path
           id="path120"
           style="fill:#0055b5;fill-opacity:1;fill-rule:nonzero;stroke:none"
           d="m 0,0 1.027,0 0,-0.747 -1.027,0 0,-3.2 c 0,-0.1 0.009,-0.18 0.025,-0.24 0.017,-0.06 0.048,-0.106 0.095,-0.139 0.046,-0.033 0.111,-0.055 0.194,-0.066 0.083,-0.009 0.191,-0.014 0.325,-0.014 l 0.388,0 0,-0.748 -0.648,0 c -0.219,0 -0.407,0.015 -0.564,0.045 -0.156,0.029 -0.282,0.084 -0.378,0.164 -0.096,0.08 -0.168,0.193 -0.214,0.34 -0.047,0.145 -0.071,0.337 -0.071,0.578 l 0,3.28 -0.877,0 0,0.747 0.877,0 0,1.547 L 0,1.547 0,0 Z" />
      </g>
      <g
         transform="translate(124.397,17.251)"
         id="g122">
        <path
           id="path124"
           style="fill:#0055b5;fill-opacity:1;fill-rule:nonzero;stroke:none"
           d="m 0,0 c -0.014,0.199 -0.059,0.389 -0.135,0.567 -0.076,0.18 -0.179,0.335 -0.308,0.465 -0.13,0.129 -0.285,0.233 -0.464,0.309 -0.18,0.076 -0.372,0.115 -0.578,0.115 -0.22,0 -0.418,-0.039 -0.594,-0.115 C -2.255,1.265 -2.406,1.159 -2.532,1.026 -2.659,0.894 -2.759,0.739 -2.832,0.563 -2.905,0.387 -2.948,0.199 -2.962,0 L 0,0 Z M 0.827,-1.437 C 0.714,-2.008 0.465,-2.443 0.078,-2.742 c -0.387,-0.3 -0.873,-0.448 -1.459,-0.448 -0.413,0 -0.771,0.068 -1.074,0.204 -0.303,0.135 -0.558,0.323 -0.765,0.563 -0.206,0.238 -0.361,0.526 -0.464,0.858 -0.103,0.332 -0.162,0.694 -0.174,1.086 0,0.386 0.059,0.744 0.178,1.072 0.12,0.329 0.288,0.613 0.504,0.852 0.216,0.24 0.472,0.426 0.768,0.559 0.296,0.133 0.62,0.199 0.972,0.199 0.458,0 0.839,-0.095 1.142,-0.284 C 0.008,1.729 0.251,1.489 0.434,1.196 0.616,0.903 0.743,0.585 0.812,0.239 0.883,-0.106 0.91,-0.436 0.897,-0.748 l -3.859,0 c -0.006,-0.226 0.021,-0.44 0.08,-0.644 0.06,-0.203 0.156,-0.381 0.289,-0.538 0.133,-0.156 0.303,-0.28 0.509,-0.374 0.206,-0.092 0.448,-0.139 0.728,-0.139 0.352,0 0.645,0.083 0.877,0.249 0.233,0.166 0.386,0.42 0.459,0.757 l 0.847,0 z" />
      </g>
      <g
         transform="translate(126.1714,19.334)"
         id="g126">
        <path
           id="path128"
           style="fill:#0055b5;fill-opacity:1;fill-rule:nonzero;stroke:none"
           d="m 0,0 0.798,0 0,-0.758 0.02,0 c 0.385,0.586 0.941,0.878 1.665,0.878 0.32,0 0.609,-0.066 0.868,-0.199 0.259,-0.133 0.442,-0.358 0.548,-0.679 0.173,0.279 0.402,0.496 0.688,0.649 0.286,0.153 0.595,0.229 0.928,0.229 0.258,0 0.493,-0.028 0.703,-0.085 0.209,-0.056 0.388,-0.144 0.538,-0.264 0.149,-0.119 0.265,-0.274 0.348,-0.463 0.083,-0.19 0.125,-0.417 0.125,-0.683 l 0,-3.779 -0.847,0 0,3.381 c 0,0.158 -0.014,0.308 -0.04,0.447 -0.027,0.14 -0.076,0.262 -0.15,0.365 -0.073,0.103 -0.174,0.184 -0.303,0.244 -0.13,0.06 -0.298,0.09 -0.504,0.09 -0.412,0 -0.739,-0.12 -0.983,-0.359 C 4.16,-1.226 4.039,-1.545 4.039,-1.943 l 0,-3.211 -0.848,0 0,3.381 c 0,0.166 -0.015,0.318 -0.045,0.458 -0.03,0.139 -0.082,0.26 -0.154,0.364 -0.073,0.102 -0.174,0.182 -0.3,0.238 -0.126,0.057 -0.282,0.086 -0.468,0.086 -0.252,0 -0.465,-0.051 -0.638,-0.15 C 1.413,-0.877 1.271,-0.996 1.162,-1.137 1.053,-1.275 0.973,-1.42 0.923,-1.57 0.873,-1.719 0.848,-1.844 0.848,-1.943 l 0,-3.211 L 0,-5.154 0,0 Z" />
      </g>
      <g
         transform="translate(135.1948,15.8047)"
         id="g130">
        <path
           id="path132"
           style="fill:#0055b5;fill-opacity:1;fill-rule:nonzero;stroke:none"
           d="m 0,0 c 0.007,-0.192 0.05,-0.352 0.13,-0.479 0.08,-0.125 0.184,-0.227 0.314,-0.303 0.129,-0.077 0.276,-0.132 0.439,-0.165 0.163,-0.033 0.331,-0.05 0.504,-0.05 0.133,0 0.272,0.011 0.418,0.03 0.146,0.02 0.281,0.057 0.404,0.11 0.123,0.052 0.225,0.13 0.304,0.234 0.08,0.103 0.12,0.234 0.12,0.394 0,0.167 -0.049,0.301 -0.145,0.404 C 2.392,0.277 2.266,0.362 2.109,0.43 1.953,0.496 1.773,0.551 1.571,0.594 1.368,0.637 1.16,0.682 0.947,0.729 0.734,0.774 0.529,0.831 0.329,0.897 0.13,0.964 -0.05,1.051 -0.209,1.156 c -0.159,0.108 -0.288,0.243 -0.384,0.41 -0.096,0.166 -0.144,0.371 -0.144,0.618 0,0.259 0.057,0.482 0.175,0.668 0.116,0.186 0.265,0.337 0.448,0.454 0.182,0.116 0.388,0.202 0.618,0.258 0.229,0.057 0.457,0.085 0.683,0.085 0.286,0 0.553,-0.024 0.802,-0.075 C 2.239,3.525 2.458,3.438 2.647,3.315 2.837,3.192 2.988,3.026 3.102,2.816 3.214,2.607 3.281,2.347 3.301,2.034 l -0.848,0 C 2.439,2.2 2.395,2.338 2.318,2.448 2.242,2.558 2.149,2.646 2.039,2.713 1.93,2.779 1.807,2.827 1.671,2.857 1.534,2.887 1.396,2.902 1.257,2.902 1.131,2.902 1.003,2.892 0.873,2.871 0.743,2.852 0.625,2.816 0.519,2.766 0.412,2.717 0.326,2.647 0.26,2.561 0.193,2.474 0.16,2.367 0.16,2.239 0.16,2.086 0.211,1.961 0.314,1.868 0.417,1.773 0.549,1.695 0.708,1.632 0.868,1.568 1.047,1.516 1.247,1.472 1.446,1.428 1.646,1.383 1.845,1.336 2.058,1.29 2.266,1.234 2.468,1.168 2.671,1.102 2.851,1.014 3.007,0.904 3.163,0.795 3.289,0.657 3.386,0.492 3.481,0.326 3.53,0.121 3.53,-0.125 3.53,-0.43 3.465,-0.686 3.336,-0.895 3.206,-1.104 3.036,-1.271 2.827,-1.396 2.618,-1.522 2.382,-1.612 2.119,-1.665 1.856,-1.718 1.596,-1.744 1.337,-1.744 c -0.293,0 -0.567,0.031 -0.823,0.094 -0.256,0.063 -0.484,0.163 -0.683,0.299 -0.199,0.136 -0.359,0.316 -0.478,0.539 -0.121,0.222 -0.187,0.494 -0.2,0.812 L 0,0 Z" />
      </g>
    </g>
  </g>
</svg>
